<?xml version="1.0" encoding="utf-8"?>
<!-- Generator: Adobe Illustrator 22.1.0, SVG Export Plug-In . SVG Version: 6.00 Build 0)  -->
<!DOCTYPE svg PUBLIC "-//W3C//DTD SVG 1.1//EN" "http://www.w3.org/Graphics/SVG/1.1/DTD/svg11.dtd">
<svg version="1.1" xmlns="http://www.w3.org/2000/svg" xmlns:xlink="http://www.w3.org/1999/xlink" x="0px" y="0px"
	 viewBox="0 0 659.333 750" enable-background="new 0 0 659.333 750" xml:space="preserve">
<g id="Layer_2" display="none">
</g>
<g id="Layer_1">
	<g>
		<path fill="#FFFFFF" d="M328.999,516.611c-68.013,0-131.954-26.485-180.046-74.577S74.376,330.001,74.376,261.988
			s26.485-131.954,74.577-180.046S260.986,7.365,328.999,7.365S460.953,33.85,509.045,81.942s74.577,112.033,74.577,180.046
			s-26.485,131.954-74.577,180.046S397.011,516.611,328.999,516.611z M328.999,14.365c-66.143,0-128.326,25.757-175.096,72.527
			c-46.771,46.77-72.527,108.953-72.527,175.096s25.757,128.326,72.527,175.096c46.77,46.771,108.953,72.527,175.096,72.527
			s128.326-25.757,175.096-72.527c46.771-46.77,72.527-108.953,72.527-175.096s-25.757-128.326-72.527-175.096
			C457.325,40.122,395.141,14.365,328.999,14.365z"/>
	</g>
	<circle fill="#FFFFFF" cx="41.665" cy="261.46" r="23.333"/>
	<path fill="#FFFFFF" d="M41.665,230.033c17.356,0,31.427,14.07,31.427,31.427c0,17.356-14.07,31.427-31.427,31.427
		s-31.427-14.07-31.427-31.427C10.239,244.103,24.309,230.033,41.665,230.033 M41.665,223.033
		c-21.188,0-38.427,17.238-38.427,38.427c0,21.189,17.238,38.427,38.427,38.427s38.427-17.238,38.427-38.427
		C80.092,240.271,62.854,223.033,41.665,223.033L41.665,223.033z"/>
	<circle fill="#FFFFFF" cx="617.647" cy="261.46" r="23.333"/>
	<path fill="#FFFFFF" d="M617.647,230.033c17.356,0,31.427,14.07,31.427,31.427c0,17.356-14.07,31.427-31.427,31.427
		s-31.427-14.07-31.427-31.427C586.22,244.103,600.29,230.033,617.647,230.033 M617.647,223.033
		c-21.188,0-38.427,17.238-38.427,38.427c0,21.189,17.238,38.427,38.427,38.427s38.427-17.238,38.427-38.427
		C656.073,240.271,638.835,223.033,617.647,223.033L617.647,223.033z"/>
	<g>
		<path fill="#FFFFFF" d="M95.83,706.538h16.079c8.04,0,12.54,5.52,12.54,12.06s-4.62,12.06-12.54,12.06h-11.1v15.899H95.83V706.538
			z M111.309,710.978h-10.5v15.239h10.5c4.74,0,7.979-3.12,7.979-7.62S116.049,710.978,111.309,710.978z"/>
		<path fill="#FFFFFF" d="M159.009,730.657h-7.98v15.899h-4.979v-40.019h16.079c7.32,0,12.54,4.68,12.54,12.06
			c0,7.2-4.92,11.159-10.38,11.64l10.8,16.319h-5.88L159.009,730.657z M161.529,710.978h-10.5v15.299h10.5
			c4.74,0,7.979-3.18,7.979-7.68S166.269,710.978,161.529,710.978z"/>
		<path fill="#FFFFFF" d="M215.767,705.878c11.819,0,19.859,8.88,19.859,20.699c0,11.82-8.04,20.699-19.859,20.699
			c-11.88,0-19.859-8.879-19.859-20.699C195.908,714.758,203.887,705.878,215.767,705.878z M215.767,710.318
			c-8.999,0-14.699,6.899-14.699,16.259c0,9.3,5.7,16.26,14.699,16.26c8.939,0,14.699-6.96,14.699-16.26
			C230.466,717.217,224.707,710.318,215.767,710.318z"/>
		<path fill="#FFFFFF" d="M258.428,706.538h16.079c8.04,0,12.54,5.52,12.54,12.06s-4.62,12.06-12.54,12.06h-11.1v15.899h-4.979
			V706.538z M273.908,710.978h-10.5v15.239h10.5c4.74,0,7.979-3.12,7.979-7.62S278.648,710.978,273.908,710.978z"/>
		<path fill="#FFFFFF" d="M308.648,706.538h26.219v4.44h-21.239v12.899h20.819v4.439h-20.819v13.8h21.239v4.439h-26.219V706.538z"/>
		<path fill="#FFFFFF" d="M370.747,730.657h-7.98v15.899h-4.979v-40.019h16.079c7.32,0,12.54,4.68,12.54,12.06
			c0,7.2-4.92,11.159-10.38,11.64l10.8,16.319h-5.88L370.747,730.657z M373.266,710.978h-10.5v15.299h10.5
			c4.74,0,7.979-3.18,7.979-7.68S378.006,710.978,373.266,710.978z"/>
		<path fill="#FFFFFF" d="M418.566,710.978h-12.659v-4.44h30.358v4.44h-12.719v35.578h-4.98V710.978z"/>
		<path fill="#FFFFFF" d="M457.866,706.538h4.979v40.019h-4.979V706.538z"/>
		<path fill="#FFFFFF" d="M487.206,706.538h26.219v4.44h-21.239v12.899h20.819v4.439h-20.819v13.8h21.239v4.439h-26.219V706.538z"/>
		<path fill="#FFFFFF" d="M536.884,737.136c2.64,2.94,6.96,5.7,12.6,5.7c7.14,0,9.42-3.84,9.42-6.899c0-4.8-4.86-6.12-10.14-7.561
			c-6.42-1.68-13.56-3.479-13.56-11.339c0-6.6,5.88-11.1,13.739-11.1c6.12,0,10.859,2.04,14.22,5.58l-3,3.659
			c-3-3.3-7.2-4.8-11.58-4.8c-4.8,0-8.22,2.58-8.22,6.36c0,4.02,4.62,5.22,9.72,6.6c6.54,1.739,13.979,3.779,13.979,12.179
			c0,5.82-3.96,11.76-14.759,11.76c-6.96,0-12.06-2.64-15.359-6.359L536.884,737.136z"/>
	</g>
	<g>
		<path fill="#FFFFFF" d="M1.535,582.59h54.454v12.272H15.477v20.614h39.679v12.273H15.477v34.316H1.535V582.59z"/>
		<path fill="#FFFFFF" d="M105.554,581.278c23.831,0,40.632,17.397,40.632,41.109s-16.801,41.108-40.632,41.108
			s-40.632-17.396-40.632-41.108S81.723,581.278,105.554,581.278z M105.554,593.671c-16.086,0-26.333,12.273-26.333,28.717
			c0,16.324,10.247,28.717,26.333,28.717c15.967,0,26.333-12.393,26.333-28.717C131.887,605.944,121.521,593.671,105.554,593.671z"
			/>
		<path fill="#FFFFFF" d="M159.645,582.59h14.061v47.662c0,12.63,7.03,20.853,20.376,20.853c13.226,0,20.256-8.223,20.256-20.853
			V582.59h14.061v48.02c0,19.779-11.319,32.887-34.316,32.887c-23.116,0-34.437-13.227-34.437-32.768V582.59z"/>
		<path fill="#FFFFFF" d="M273.076,632.396h-13.822v29.67h-13.941V582.59h34.913c15.729,0,25.976,10.247,25.976,24.903
			c0,14.18-9.294,21.806-18.826,23.354l19.422,31.219h-16.086L273.076,632.396z M278.318,594.862h-19.064v25.261h19.064
			c7.864,0,13.584-5.004,13.584-12.63S286.183,594.862,278.318,594.862z"/>
		<path fill="#FFFFFF" d="M369.702,594.862h-24.07V582.59h62.081v12.272h-24.07v67.204h-13.94V594.862z"/>
		<path fill="#FFFFFF" d="M450.009,632.396h-13.822v29.67h-13.941V582.59h34.913c15.729,0,25.976,10.247,25.976,24.903
			c0,14.18-9.294,21.806-18.826,23.354l19.422,31.219h-16.086L450.009,632.396z M455.251,594.862h-19.064v25.261h19.064
			c7.864,0,13.584-5.004,13.584-12.63S463.115,594.862,455.251,594.862z"/>
		<path fill="#FFFFFF" d="M536.867,581.278c23.831,0,40.632,17.397,40.632,41.109s-16.801,41.108-40.632,41.108
			s-40.632-17.396-40.632-41.108S513.036,581.278,536.867,581.278z M536.867,593.671c-16.086,0-26.333,12.273-26.333,28.717
			c0,16.324,10.247,28.717,26.333,28.717c15.967,0,26.333-12.393,26.333-28.717C563.2,605.944,552.834,593.671,536.867,593.671z"/>
		<path fill="#FFFFFF" d="M611.454,629.06l-30.861-46.471h15.967l21.925,34.078l21.687-34.078h15.967l-30.742,46.471v33.006h-13.941
			V629.06z"/>
	</g>
	<g>
		<path fill="#FFFFFF" d="M226.914,218.132l31.498,22.997l8.75-4.359l0.591-37.084l-6.836-5.43l-18.86,4.624l0.454,11.31
			l14.118-3.518l-0.308,19.301l-18.408-13.433l-0.172-16.779l46.121-12.007l-5.839-4.449l0,0l-5.055-3.852l-5.055-3.852l0.084,4.905
			l-8.706,2.267l-3.18-12.215l3.876-0.996l-5.055-3.852l-5.055-3.852l0.067,3.892L237.393,162l-0.091-8.81l4.822-1.238l-5.055-3.852
			l-5.055-3.852l0,0l-5.857-4.463L226.914,218.132z M246.367,172.835l2.268,8.711l-11.012,2.867l-0.117-11.403L246.367,172.835z"/>
		<path fill="#FFFFFF" d="M450.346,309.657l-5.055-3.852l0.084,4.905l-8.706,2.267l-3.18-12.215l3.876-0.996l-5.055-3.852
			l-5.055-3.851l0.067,3.892l-12.552,0.248l-0.09-8.81l4.822-1.238l-5.055-3.852l-1.552-1.182l-9.36-7.133l0.756,78.347
			l31.498,22.997l8.75-4.359l0.591-37.083l-6.836-5.43l-18.859,4.624l0.454,11.31l14.118-3.518l-0.308,19.301l-18.408-13.433
			l-0.172-16.779l38.369-9.989v-7.925l-2.128-1.622L450.346,309.657z M415.002,318.618l-0.118-11.403l8.861-0.175l2.268,8.712
			L415.002,318.618z"/>
		<path fill="#FFFFFF" d="M493.589,97.397c-43.964-43.964-102.417-68.176-164.591-68.176c-62.175,0-120.627,24.212-164.591,68.176
			S96.232,199.813,96.232,261.988c0,62.174,24.212,120.627,68.176,164.59c43.964,43.964,102.416,68.176,164.591,68.176
			c62.174,0,120.627-24.212,164.591-68.176c43.964-43.963,68.176-102.416,68.176-164.59S537.553,141.361,493.589,97.397z
			 M495.999,371.432l-18.859,4.624l0.454,11.31l14.118-3.518l-0.308,19.301l-18.408-13.433l-0.173-16.779l46.121-12.007
			l-5.839-4.449l0,0l-5.055-3.852l-5.055-3.852l0.084,4.905l-8.707,2.267l-3.18-12.215l3.876-0.996l-5.055-3.852l-5.055-3.852
			l0.066,3.892l-12.552,0.248l-0.09-8.81l4.822-1.238l-5.055-3.852l-4.644-3.539l-6.269-4.776l0.756,78.347l26.617,19.433
			c-1.117,1.166-2.243,2.326-3.389,3.472c-0.733,0.733-1.485,1.441-2.226,2.162l-104.735-77.47l-6.557-43.312
			c12.592-10.872,20.572-26.938,20.572-44.88c0-1.918-0.099-3.812-0.277-5.683l138.97,102.794
			c-7.432,16.691-16.978,32.464-28.487,46.997l0.35-21.959L495.999,371.432z M472.707,361.59l-0.118-11.403l8.861-0.175l2.268,8.712
			L472.707,361.59z M122,184.466c2.402-6.424,5.106-12.73,8.104-18.902l146.903,108.661c3.464,9.926,9.489,18.65,17.288,25.379
			l-1.675,11.065L122,184.466z M257.267,293.226c-15.724-1.686-28.402,1.867-37.755,10.598c-4.704,4.393-8.469,9.993-11.283,16.74
			c-1.417-29.129-5.992-55.592-12.641-72.961L257.267,293.226z M379.323,349.907l100.003,73.97
			c-5.05,4.697-10.285,9.127-15.685,13.294l-80.075-59.23L379.323,349.907z M390.896,241.994
			c-5.823-26.628-29.528-46.567-57.903-46.567c-1.607,0-3.195,0.082-4.771,0.208L187.979,91.9
			c5.424-4.513,11.033-8.742,16.808-12.684L540.166,327.29c-2.07,6.723-4.458,13.336-7.163,19.817L390.896,241.994z M375,139.672
			c0,0,7.458-6.491,18.549-7.905c4.346,2.232,8.547,4.726,12.564,7.437c2.047,1.377,4.045,2.818,5.967,4.315
			c0.966,0.741,1.91,1.506,2.822,2.273l1.343,1.153c0.406,0.363,0.909,0.812,1.141,1.059c0.329,0.345,0.724,0.703,1.119,0.998
			c0.127,0.095,0.26,0.175,0.391,0.262c1.238,1.264,2.527,2.67,3.814,4.206c-10.243-1.16-36.704-1.984-48.699,18.132
			c0,0-5.854,10.212,1.172,24.948l-20.2-14.942c0.553,0.066,1.114,0.11,1.685,0.11c4.939,0,9.28-2.539,11.805-6.378
			c1.455-1.76,2.665-3.934,3.548-6.483c4.2-12.13,1.726-23.08-7.156-31.666c-10.829-10.469-28.378-14.997-37.664-15.56
			c2.608-0.572,5.17-1.022,7.621-1.31c5.093-0.608,10.205-0.725,15.267-0.558c5.069,0.259,10.086,0.902,15.018,1.878
			c2.465,0.504,4.906,1.099,7.32,1.778c-0.78,4.515-2.554,8.915-5.967,12.517C366.459,135.935,369.306,140.205,375,139.672z
			 M378.025,111.736c0-4.521,3.665-8.185,8.185-8.185s8.185,3.665,8.185,8.185c0,4.52-3.665,8.185-8.185,8.185
			S378.025,116.256,378.025,111.736z M319.194,126.567c3.149-0.64,31.189,4.856,42.201,17.102c3.848,4.279,5.708,9.02,5.626,14.339
			c-2.58-2.786-6.257-4.54-10.354-4.54c-7.801,0-14.125,6.324-14.125,14.125c0,2.034,0.438,3.963,1.212,5.71l-49.984-36.973
			C301.888,133.236,315.256,128.052,319.194,126.567z M485.224,105.763c30.067,30.067,50.398,67.274,59.415,107.798
			c-4.741,1.587-9.169,3.323-13.296,5.179l10.891,54.686c-0.887,0.415-1.756,0.842-2.596,1.286l-15.806-52.298
			c-6.254,3.313-11.72,6.886-16.492,10.56l26.679,45.135c-0.803,0.548-1.588,1.104-2.339,1.671l-30.465-41.718
			c-5.413,4.857-9.722,9.753-13.132,14.333l36.55,33.649c-0.609,0.632-1.199,1.263-1.754,1.889l-38.958-29.444
			c-3.54,5.678-5.615,10.467-6.741,13.506l-93.621-69.25c5.108-2.155,14.935-5.245,24.439-2.311c0,0-16.462-26.47,19.296-40.798
			c4.715,7.222,8.401,16.29,7.848,26.653c-1.424,26.69,30.604,51.245,69.395,28.114c0,0-29.674-3.559-48.289-25.267
			c0,0,61.1-11.388,45.086-65.351c0,0-12.1,13.394-34.163,8.768c0,0,12.438,30.641-10.04,38.078c0,0-0.28-15.825-5.618-21.792
			c0,0,31.761-45.29-23.754-76.962c0,0-2.914,15.884-14.947,22.914c0,0,32.028,22.463,19.484,45.415l-0.274,0.015
			c-0.244-1.083-0.704-2.118-1.355-3.047c-2.174-3.783-21.961-37.468-39.474-41.453c-12.812-2.915-22.064,1.957-22.064,1.957
			s0.984,4.301,1.665,13.136c-1.758-0.22-25.51-7.188-49.962,5.545c4.431-7.005,10.006-18.632,8.472-31.12
			c-1.275-10.39-7.185-19.301-17.563-26.486c-11.617-8.043-27.268-8.909-39.869-2.206c-11.211,5.964-17.55,16.571-17.393,29.104
			c0.15,11.95,5.655,21.803,15.105,27.024c11.358,6.275,27.677,1.253,27.896,1.194c6.892-1.865,10.967-8.964,9.102-15.856
			c-1.865-6.892-8.964-10.967-15.856-9.102c-6.892,1.865-10.967,8.964-9.102,15.856c0.475,1.752,1.29,3.32,2.352,4.657
			c-3.87-0.065-7.646-1.018-11.004-2.875c-7.291-4.031-11.373-11.484-11.492-20.986c-0.124-9.821,4.862-18.145,13.68-22.836
			c10.314-5.486,23.108-4.787,32.598,1.782c8.654,5.991,13.565,13.242,14.596,21.551c2.048,16.499-11.578,32.305-11.723,32.47
			c-8.076,9.267-26.613,9.72-26.826,9.725c-0.275,0.005-0.54,0.049-0.795,0.113l-72.005-53.261
			c34.976-22.18,75.574-34.056,117.998-34.056C388.012,41.052,443.495,64.033,485.224,105.763z M169.553,109.062l0.657,67.989
			l31.498,22.997l8.75-4.359l0.591-37.083l-6.836-5.43l-18.859,4.624l0.454,11.31l14.118-3.518l-0.307,19.301l-18.408-13.433
			l-0.173-16.779l37.751-9.828v-8.557l-2.524-1.923l-5.055-3.851l0.084,4.905l-8.707,2.267l-3.18-12.215l3.876-0.995l-5.055-3.852
			l-5.055-3.852l0.067,3.892l-12.552,0.248l-0.091-8.81l4.822-1.239l-5.055-3.851l-4.986-3.8c2.838-2.748,5.733-5.415,8.69-7.992
			l137.07,101.388c-27.062,5.492-47.432,29.415-47.432,58.098c0,4.019,0.421,7.937,1.185,11.73L132.374,161.025
			C142.061,142.211,154.521,124.718,169.553,109.062z M180.803,131.929l8.861-0.175l2.268,8.712l-11.012,2.867L180.803,131.929z
			 M172.773,418.213c-41.729-41.729-64.711-97.211-64.711-156.225c0-24.388,3.936-48.169,11.487-70.63l62.065,45.908
			c16.19,26.511,19.838,81.291,19.457,115.257l-1.025-6.339c-0.526-3.04-0.921-6.104-1.703-9.096l-2.09-9.025
			c-0.181-0.75-0.333-1.508-0.539-2.252l-0.67-2.219l-1.343-4.438c-3.682-11.781-8.348-23.354-14.813-33.95
			c-1.658-2.616-3.375-5.201-5.119-7.76l-2.827-3.695l-1.419-1.841l-1.54-1.746c-4.082-4.675-8.554-9.005-13.889-12.399
			c-0.202-0.128-0.469-0.133-0.68,0.01c-0.283,0.192-0.356,0.577-0.165,0.86l0.183,0.269c3.592,5.294,6.518,10.542,9.134,15.868
			c0.323,0.665,0.682,1.295,1.018,1.939l0.913,2.019c0.597,1.347,1.252,2.632,1.868,3.933c1.122,2.701,2.283,5.333,3.414,7.953
			l1.545,4.033c0.51,1.341,1.113,2.619,1.614,3.956c0.886,2.749,1.918,5.406,2.91,8.071l2.698,8.159
			c0.423,1.37,1.039,2.655,1.382,4.067l1.197,4.156c1.868,5.441,3.257,11.088,4.965,16.679c0.983,2.761,1.522,5.659,2.376,8.492
			l1.204,4.278l1.328,4.278c1.501,5.783,3.196,11.598,5.172,17.476c0.862,2.957,1.763,5.929,2.815,8.917
			c0.094,0.276,2.499,20.935,3.123,23.688c-7.637,0.642-13.5-4.75-16.421-10.139c-3.125-13.564-6.242-82.776-65.248-152.052
			c-0.001,0.245-0.009,0.489-0.009,0.735c0,57.985,19.027,113.038,54.103,158.059c10.908,9.981,21.278,11.842,30.684,10.989
			c2.296,6.247,4.037,8.35,8.254,13.396c5.437,6.561,12.286,11.67,19.659,15.299c3.69,1.823,7.565,3.142,11.412,4.451
			c4.628,1.575,10.435,2.152,10.403,2.14c-0.488-0.168-0.967-0.298-1.448-0.448c-0.96-0.292-1.915-0.6-2.86-0.927
			c-1.892-0.655-3.753-1.382-5.577-2.182c-3.647-1.6-7.149-3.484-10.43-5.653c-6.566-4.324-12.222-9.845-16.295-16.256
			c-4.099-6.401-6.565-13.627-7.567-21.035c-1.017-7.418-0.648-15.005,0.598-22.469c0.038-0.236,0.068-0.51,0.078-0.755
			c0.001-0.022-0.001-0.043-0.001-0.065c4.689-19.841,11.52-33.774,20.067-40.729c7.323-5.96,17.718-7.339,26.483-3.515
			c7.436,3.244,11.997,9.668,12.514,17.624c0.5,7.697-2.316,13.972-7.929,17.67c-2.658,1.751-5.733,2.757-8.941,3.022
			c0.461-0.905,0.809-1.885,1.007-2.932c1.122-5.938-2.781-11.661-8.719-12.784c-5.938-1.123-11.661,2.781-12.784,8.719
			c-0.81,4.285,1.006,8.448,4.306,10.862c0.243,0.217,2.027,1.187,2.536,1.381c8.981,3.894,19.101,3.236,26.824-1.851
			c7.902-5.206,12.046-14.167,11.369-24.584c-0.71-10.926-6.946-19.735-17.108-24.169c-11.372-4.962-24.875-3.157-34.405,4.597
			c-6.666,5.425-12.274,13.947-16.787,25.477c-0.326-12.019,0.925-36.286,14.897-49.315c8.186-7.635,26.484-11.946,44.657-7.207
			l22.008,16.279l-23.597,155.879C232.264,464.191,199.662,445.101,172.773,418.213z M385.051,387.746l72.729,53.796
			c-18.409,13.26-38.596,23.524-59.968,30.501L385.051,387.746z"/>
	</g>
</g>
</svg>
